<svg width="133" height="36" viewBox="0 0 133 36" fill="none" xmlns="http://www.w3.org/2000/svg">
<g clip-path="url(#clip0_232_37191)">
<g clip-path="url(#clip1_232_37191)">
<path d="M0 18C0 10.3236 0 6.48536 2.01776 3.84125C2.53722 3.16054 3.14319 2.55123 3.82017 2.02889C6.44976 0 10.2669 0 17.9012 0V0C25.5355 0 29.3526 0 31.9822 2.02889C32.6592 2.55123 33.2652 3.16054 33.7846 3.84125C35.8024 6.48536 35.8024 10.3236 35.8024 18V18C35.8024 25.6764 35.8024 29.5146 33.7846 32.1587C33.2652 32.8395 32.6592 33.4488 31.9822 33.9711C29.3526 36 25.5355 36 17.9012 36V36C10.2669 36 6.44976 36 3.82017 33.9711C3.14319 33.4488 2.53722 32.8395 2.01776 32.1587C0 29.5146 0 25.6764 0 18V18Z" fill="white"/>
<path fill-rule="evenodd" clip-rule="evenodd" d="M25.8731 22.8803L25.7228 23.019C22.4559 26.0335 17.1914 24.3536 16.222 19.9872L15.9371 18.7039C15.8884 18.4846 15.8641 18.3748 15.85 18.3327C15.5929 17.5615 14.5155 17.5615 14.2584 18.3327C14.2443 18.3749 14.22 18.4845 14.1713 18.7039L13.8864 19.9872C12.917 24.3536 7.65253 26.0335 4.3856 23.019L4.23535 22.8803C2.83385 21.5871 2.03516 19.756 2.03516 17.8361C2.03516 16.119 3.40996 14.7271 5.10586 14.7271H18.7158H32.9554C33.1588 14.7271 33.3622 14.9316 33.3622 15.1361C33.3622 16.524 32.2342 17.5907 30.9212 17.5907H28.3082C28.1764 17.5907 28.0733 17.7036 28.0733 17.8361C28.0733 19.756 27.2746 21.5871 25.8731 22.8803Z" fill="black"/>
</g>
<g clip-path="url(#clip2_232_37191)">
<path d="M114.07 31.7046V11.5446H118.257V12.4037C119.339 11.6019 120.734 11.1724 122.215 11.1724C126.687 11.1724 130.389 14.8092 130.389 19.4769C130.389 24.1446 126.687 27.7815 122.215 27.7815C120.734 27.7815 119.339 27.3519 118.257 26.5501V31.7046H114.07ZM122.073 23.5719C124.294 23.5719 126.003 21.8251 126.003 19.4769C126.003 17.1287 124.294 15.3819 122.073 15.3819C119.852 15.3819 118.171 17.1287 118.171 19.4769C118.171 21.8251 119.852 23.5719 122.073 23.5719Z" fill="white"/>
<path d="M104.539 27.7815C99.8965 27.7815 96.2227 24.116 96.2227 19.4769C96.2227 14.8378 99.8965 11.1724 104.539 11.1724C109.181 11.1724 112.854 14.8378 112.854 19.4769C112.854 24.116 109.181 27.7815 104.539 27.7815ZM104.539 23.5719C106.76 23.5719 108.469 21.8251 108.469 19.4769C108.469 17.1287 106.76 15.3819 104.539 15.3819C102.317 15.3819 100.608 17.1287 100.608 19.4769C100.608 21.8251 102.317 23.5719 104.539 23.5719Z" fill="white"/>
<path d="M87.0728 27.7815C85.5919 27.7815 84.1964 27.3519 83.1142 26.5501V27.4092H78.9277V6.79102H83.1142V12.4037C84.1964 11.6019 85.5919 11.1724 87.0728 11.1724C91.544 11.1724 95.2463 14.8092 95.2463 19.4769C95.2463 24.1447 91.544 27.7815 87.0728 27.7815ZM86.9304 23.5719C89.1518 23.5719 90.8605 21.8251 90.8605 19.4769C90.8605 17.1287 89.1518 15.3819 86.9304 15.3819C84.709 15.3819 83.0287 17.1287 83.0287 19.4769C83.0287 21.8251 84.709 23.5719 86.9304 23.5719Z" fill="white"/>
<path d="M69.9811 27.7815C65.2251 27.7815 61.6367 24.2305 61.6367 19.5342C61.6367 14.8951 65.2251 11.1724 69.6963 11.1724C74.31 11.1724 77.7275 14.6946 77.7275 19.391C77.7275 20.1928 77.642 20.7369 77.642 20.7369H65.8801C66.3358 22.7987 67.8167 24.1446 69.9811 24.1446C71.5475 24.1446 72.886 23.3428 73.7688 21.9396L76.987 24.0015C75.5061 26.4069 72.9714 27.7815 69.9811 27.7815ZM65.9656 17.8733H73.4556C73.2277 16.1551 71.6899 14.8092 69.7248 14.8092C67.9021 14.8092 66.4782 16.0405 65.9656 17.8733Z" fill="white"/>
<path d="M52.4595 27.7815C50.9786 27.7815 49.5831 27.3519 48.5009 26.5501V27.4092H44.3145V6.79102H48.5009V12.4037C49.5831 11.6019 50.9786 11.1724 52.4595 11.1724C56.9307 11.1724 60.633 14.8092 60.633 19.4769C60.633 24.1447 56.9307 27.7815 52.4595 27.7815ZM52.3171 23.5719C54.5385 23.5719 56.2472 21.8251 56.2472 19.4769C56.2472 17.1287 54.5385 15.3819 52.3171 15.3819C50.0957 15.3819 48.4155 17.1287 48.4155 19.4769C48.4155 21.8251 50.0957 23.5719 52.3171 23.5719Z" fill="white"/>
</g>
</g>
<defs>
<clipPath id="clip0_232_37191">
<rect width="130.387" height="36" fill="white"/>
</clipPath>
<clipPath id="clip1_232_37191">
<rect width="35.8024" height="36" fill="white"/>
</clipPath>
<clipPath id="clip2_232_37191">
<rect width="86.0736" height="24.9136" fill="white" transform="translate(44.3145 6.79102)"/>
</clipPath>
</defs>
</svg>
